<svg xmlns="http://www.w3.org/2000/svg" width="209.848" height="53.786" viewBox="0 0 209.848 53.786">
  <g id="Logo" transform="translate(-51.152 -13.107)">
    <g id="cinema-svgrepo-com" transform="translate(-0.363 -42.197)">
      <path id="Tracé_1" data-name="Tracé 1" d="M534.121,859.58v5.145H508.544a25.465,25.465,0,0,0,15.387-5.145Z" transform="translate(-430.137 -756.952)" fill="none"/>
      <path id="Tracé_2" data-name="Tracé 2" d="M99.468,77.682a25.576,25.576,0,1,1-25.575,25.575A25.576,25.576,0,0,1,99.468,77.682ZM115.73,94.045a5.7,5.7,0,1,0-5.705,5.705A5.7,5.7,0,0,0,115.73,94.045Zm0,19.877a5.7,5.7,0,1,0-5.705,5.7A5.706,5.706,0,0,0,115.73,113.922Zm-13.141-9.94a2.5,2.5,0,1,0-2.5,2.5A2.5,2.5,0,0,0,102.589,103.983Zm-6.736-9.938a5.7,5.7,0,1,0-5.7,5.705A5.7,5.7,0,0,0,95.853,94.045Zm0,19.877a5.7,5.7,0,1,0-5.7,5.7A5.7,5.7,0,0,0,95.853,113.923Z" transform="translate(-21.061 -21.061)" fill="none"/>
      <path id="Tracé_3" data-name="Tracé 3" d="M78.407,109.09a26.891,26.891,0,1,1,16.18-5.41,26.923,26.923,0,0,1-16.18,5.41Zm0-51.152A24.26,24.26,0,1,0,102.667,82.2a24.286,24.286,0,0,0-24.26-24.258Z" transform="translate(0)" fill="#f1f8f2"/>
      <path id="Tracé_4" data-name="Tracé 4" d="M228.291,240.924a7.021,7.021,0,1,1,7.02-7.022A7.029,7.029,0,0,1,228.291,240.924Zm0-11.409a4.388,4.388,0,1,0,4.387,4.387A4.392,4.392,0,0,0,228.291,229.516Zm19.876,11.409a7.021,7.021,0,1,1,7.022-7.022A7.029,7.029,0,0,1,248.167,240.924Zm0-11.409a4.388,4.388,0,1,0,4.389,4.387A4.392,4.392,0,0,0,248.167,229.516ZM228.291,260.8a7.021,7.021,0,1,1,7.02-7.02A7.028,7.028,0,0,1,228.291,260.8Zm0-11.409a4.388,4.388,0,1,0,4.387,4.389A4.393,4.393,0,0,0,228.291,249.391ZM248.167,260.8a7.021,7.021,0,1,1,7.022-7.02A7.028,7.028,0,0,1,248.167,260.8Zm0-11.409a4.388,4.388,0,1,0,4.389,4.389A4.393,4.393,0,0,0,248.167,249.391Zm-9.938-1.733a3.818,3.818,0,1,1,3.819-3.819A3.822,3.822,0,0,1,238.229,247.659Zm0-5a1.184,1.184,0,1,0,1.185,1.183A1.185,1.185,0,0,0,238.229,242.657Zm25.523,27.915H238.174a1.317,1.317,0,1,1,0-2.634h25.577a1.317,1.317,0,1,1,0,2.634Zm0-5.145h-10.19a1.317,1.317,0,0,1,0-2.634h10.19a1.317,1.317,0,1,1,0,2.634Z" transform="translate(-159.767 -161.482)" fill="#f1f8f2"/>
    </g>
    <text id="EgoMovie" transform="translate(115 53)" fill="#f1f8f2" font-size="32" font-family="Nunito-Bold, Nunito" font-weight="700"><tspan x="0" y="0">EgoMovie</tspan></text>
  </g>
</svg>
